<?xml version="1.0" encoding="UTF-8" standalone="no"?><!DOCTYPE svg PUBLIC "-//W3C//DTD SVG 1.1//EN" "http://www.w3.org/Graphics/SVG/1.1/DTD/svg11.dtd"><svg width="100%" height="100%" viewBox="0 0 22 31" version="1.1" xmlns="http://www.w3.org/2000/svg" xmlns:xlink="http://www.w3.org/1999/xlink" xml:space="preserve" xmlns:serif="http://www.serif.com/" style="fill-rule:evenodd;clip-rule:evenodd;stroke-linejoin:round;stroke-miterlimit:1.41421;"><path d="M10.897,6.947c-2.073,0 -3.76,1.687 -3.76,3.76c0,2.073 1.687,3.76 3.76,3.76c2.073,0 3.761,-1.687 3.761,-3.76c0,-2.073 -1.688,-3.76 -3.761,-3.76Zm0,6.446c-1.481,0 -2.686,-1.205 -2.686,-2.686c0,-1.481 1.205,-2.686 2.686,-2.686c1.481,0 2.686,1.205 2.686,2.686c0,1.481 -1.205,2.686 -2.686,2.686Z" style="fill:#c90002;fill-rule:nonzero;stroke:#c90002;stroke-width:1px;"/><path d="M18.087,3.518c-1.946,-1.946 -4.533,-3.018 -7.285,-3.018c-2.752,0 -5.338,1.072 -7.284,3.018c-3.601,3.6 -4.049,10.374 -0.969,14.478l8.253,11.92l8.242,-11.903c3.091,-4.121 2.644,-10.895 -0.957,-14.495Zm0.085,13.867l-7.37,10.643l-7.381,-10.66c-2.793,-3.724 -2.393,-9.841 0.857,-13.091c1.743,-1.743 4.06,-2.703 6.524,-2.703c2.465,0 4.782,0.96 6.525,2.703c3.25,3.25 3.651,9.367 0.845,13.108Z" style="fill:#c90002;fill-rule:nonzero;stroke:#c90002;stroke-width:1px;"/></svg>