<?xml version="1.0" encoding="UTF-8" standalone="no"?><!DOCTYPE svg PUBLIC "-//W3C//DTD SVG 1.1//EN" "http://www.w3.org/Graphics/SVG/1.1/DTD/svg11.dtd"><svg width="100%" height="100%" viewBox="0 0 37 30" version="1.1" xmlns="http://www.w3.org/2000/svg" xmlns:xlink="http://www.w3.org/1999/xlink" xml:space="preserve" xmlns:serif="http://www.serif.com/" style="fill-rule:evenodd;clip-rule:evenodd;stroke-linejoin:round;stroke-miterlimit:1.41421;"><g><path d="M33.139,6.003l-5.118,0l-2.401,-6.003l-15.221,0l-2.401,6.003l-0.794,0l0,-3.001l-3.602,0l0,3.001l-0.721,0c-1.589,0 -2.881,1.292 -2.881,2.881l0,17.631c0,1.599 1.302,2.901 2.901,2.901l30.217,0c1.6,0 2.902,-1.302 2.902,-2.901l0,-17.631c0,-1.589 -1.292,-2.881 -2.881,-2.881Zm-28.336,-1.801l1.2,0l0,1.801l-1.2,0l0,-1.801Zm30.016,22.313c0,0.938 -0.763,1.7 -1.701,1.7l-30.217,0c-0.937,0 -1.7,-0.763 -1.7,-1.7l0,-17.631c0,-0.926 0.754,-1.68 1.68,-1.68l5.93,0l2.401,-6.003l13.595,0l2.402,6.003l5.93,0c0.926,0 1.68,0.754 1.68,1.68l0,17.631Z" style="fill:#c90002;fill-rule:nonzero;"/><path d="M18.01,5.403c-5.958,0 -10.806,4.848 -10.806,10.806c0,5.958 4.848,10.806 10.806,10.806c5.958,0 10.806,-4.848 10.806,-10.806c0,-5.958 -4.848,-10.806 -10.806,-10.806Zm0,20.411c-5.296,0 -9.605,-4.309 -9.605,-9.605c0,-5.296 4.309,-9.605 9.605,-9.605c5.296,0 9.605,4.309 9.605,9.605c0,5.296 -4.309,9.605 -9.605,9.605Z" style="fill:#c90002;fill-rule:nonzero;"/><path d="M18.01,9.005c-3.973,0 -7.204,3.231 -7.204,7.204c0,3.972 3.231,7.204 7.204,7.204c3.972,0 7.204,-3.232 7.204,-7.204c0,-3.973 -3.232,-7.204 -7.204,-7.204Zm0,13.207c-3.31,0 -6.003,-2.693 -6.003,-6.003c0,-3.31 2.693,-6.003 6.003,-6.003c3.31,0 6.003,2.693 6.003,6.003c0,3.31 -2.693,6.003 -6.003,6.003Z" style="fill:#c90002;fill-rule:nonzero;"/><path d="M31.217,8.405c-1.324,0 -2.401,1.077 -2.401,2.401c0,1.324 1.077,2.401 2.401,2.401c1.324,0 2.401,-1.077 2.401,-2.401c0,-1.324 -1.077,-2.401 -2.401,-2.401Zm0,3.602c-0.662,0 -1.201,-0.539 -1.201,-1.201c0,-0.662 0.539,-1.201 1.201,-1.201c0.662,0 1.201,0.539 1.201,1.201c0,0.662 -0.539,1.201 -1.201,1.201Z" style="fill:#c90002;fill-rule:nonzero;"/></g></svg>