<svg width="104" height="104" viewBox="0 0 104 104" fill="none" xmlns="http://www.w3.org/2000/svg">
<path d="M102.117 48.2607H75.0722C74.2041 48.2607 73.4529 47.6633 73.2516 46.8188C71.3543 38.866 65.0681 32.5996 57.1046 30.7305C56.2569 30.5314 55.6558 29.7789 55.6558 28.9083V1.8735C55.6558 0.757039 56.6258 -0.106716 57.7359 0.0106997C69.5492 1.26266 80.4958 6.46733 89.0157 14.985C97.5115 23.483 102.713 34.3984 103.98 46.1779C104.099 47.2891 103.235 48.2607 102.117 48.2607Z" fill="#F65132"/>
<path d="M55.6558 28.9087V23.343C68.6759 24.9517 79.0025 35.253 80.6512 48.2613H75.0724C74.2043 48.2613 73.4531 47.6638 73.2518 46.8194C71.3545 38.8666 65.0683 32.6001 57.1048 30.731C56.2569 30.532 55.6558 29.7793 55.6558 28.9087Z" fill="#F95D48"/>
<path d="M103.998 57.3641C102.956 67.3436 99.0931 76.7073 92.7974 84.5134C92.0958 85.3831 90.7977 85.4594 90.0077 84.6692L74.8666 69.5281L70.8826 65.5441C70.266 64.9276 70.1616 63.9704 70.6197 63.2285C71.8569 61.2271 72.7582 59.0367 73.2878 56.7441C73.4844 55.8921 74.2381 55.2861 75.1124 55.2861H102.135C103.25 55.2859 104.114 56.2545 103.998 57.3641Z" fill="#D5D5D5"/>
<path d="M85.0491 89.6459C85.8381 90.4349 85.7635 91.7303 84.8967 92.4326C75.65 99.9248 64.2109 104 52.143 104C38.2169 104 25.1223 98.5743 15.2728 88.7275C5.479 78.9339 0.0614459 65.9313 0.00050382 52.0934C-0.0606414 38.1963 5.44609 24.8116 15.273 14.9849C23.7915 6.46644 34.7395 1.26178 46.5544 0.0106411C47.6629 -0.106571 48.6303 0.759416 48.6303 1.87405V28.9084C48.6303 29.7807 48.0267 30.5323 47.1774 30.7318C37.5965 32.9825 30.4421 41.5981 30.4421 51.8575C30.4421 63.8213 40.1766 73.558 52.1426 73.558C56.3498 73.558 60.28 72.3532 63.6092 70.2726C64.3517 69.8086 65.314 69.9114 65.933 70.5304L85.0491 89.6459Z" fill="#D5D5D5"/>
</svg>
