<?xml version="1.0" encoding="UTF-8" standalone="no"?><!DOCTYPE svg PUBLIC "-//W3C//DTD SVG 1.1//EN" "http://www.w3.org/Graphics/SVG/1.1/DTD/svg11.dtd"><svg width="100%" height="100%" viewBox="0 0 17 17" version="1.1" xmlns="http://www.w3.org/2000/svg" xmlns:xlink="http://www.w3.org/1999/xlink" xml:space="preserve" xmlns:serif="http://www.serif.com/" style="fill-rule:evenodd;clip-rule:evenodd;stroke-linejoin:round;stroke-miterlimit:1.41421;"><g><path d="M12.808,11.144c-0.551,-0.543 -1.238,-0.543 -1.785,0c-0.417,0.414 -0.834,0.828 -1.244,1.248c-0.112,0.116 -0.207,0.14 -0.344,0.063c-0.27,-0.147 -0.557,-0.266 -0.817,-0.427c-1.209,-0.761 -2.222,-1.739 -3.12,-2.84c-0.445,-0.547 -0.841,-1.132 -1.118,-1.791c-0.056,-0.133 -0.045,-0.221 0.063,-0.33c0.417,-0.403 0.824,-0.817 1.234,-1.23c0.572,-0.575 0.572,-1.248 -0.003,-1.827c-0.326,-0.329 -0.652,-0.652 -0.978,-0.981c-0.337,-0.337 -0.67,-0.677 -1.01,-1.01c-0.55,-0.536 -1.237,-0.536 -1.784,0.004c-0.421,0.413 -0.824,0.838 -1.252,1.244c-0.396,0.375 -0.596,0.835 -0.638,1.371c-0.066,0.873 0.147,1.697 0.449,2.499c0.617,1.662 1.556,3.138 2.696,4.491c1.539,1.83 3.376,3.278 5.524,4.322c0.968,0.47 1.971,0.831 3.061,0.891c0.75,0.042 1.402,-0.147 1.924,-0.733c0.358,-0.4 0.761,-0.764 1.14,-1.146c0.561,-0.568 0.564,-1.255 0.007,-1.816c-0.666,-0.67 -1.336,-1.336 -2.005,-2.002Z" style="fill:#e72124;fill-rule:nonzero;"/><path d="M12.138,8.35l1.294,-0.221c-0.204,-1.188 -0.765,-2.264 -1.617,-3.12c-0.9,-0.9 -2.04,-1.468 -3.295,-1.644l-0.182,1.301c0.971,0.137 1.854,0.575 2.552,1.272c0.659,0.659 1.09,1.494 1.248,2.412Z" style="fill:#e72124;fill-rule:nonzero;"/><path d="M14.161,2.727c-1.494,-1.493 -3.383,-2.436 -5.469,-2.727l-0.182,1.301c1.802,0.252 3.435,1.069 4.725,2.355c1.224,1.224 2.026,2.77 2.317,4.47l1.294,-0.221c-0.34,-1.97 -1.269,-3.758 -2.685,-5.178Z" style="fill:#e72124;fill-rule:nonzero;"/></g></svg>